<svg width="214" height="35" viewBox="0 0 214 35" fill="none" xmlns="http://www.w3.org/2000/svg">
<g filter="url(#filter0_b_2_2)">
<path d="M0.0681819 34L5.50142 1.27273H15.7287C17.5611 1.27273 19.0739 1.60831 20.267 2.27947C21.4709 2.93998 22.3125 3.89346 22.7919 5.13991C23.282 6.37571 23.3778 7.85653 23.0795 9.58239C22.8665 10.8608 22.4776 12.0327 21.913 13.098C21.3484 14.1634 20.6346 15.0636 19.7717 15.7987C18.9087 16.5337 17.9233 17.0398 16.8153 17.3168V17.4446C17.9872 17.5511 18.9886 17.9666 19.8196 18.6911C20.6506 19.4155 21.2418 20.3743 21.5934 21.5675C21.945 22.7607 21.9929 24.1136 21.7372 25.6264C21.4602 27.3097 20.8583 28.7798 19.9315 30.0369C19.0153 31.294 17.8274 32.2688 16.3679 32.9613C14.919 33.6538 13.2571 34 11.3821 34H0.0681819ZM1.28267 32.9773H11.5739C13.9709 32.9773 15.995 32.3061 17.6463 30.9638C19.3082 29.6108 20.331 27.8317 20.7145 25.6264C20.9702 24.1136 20.853 22.7766 20.3629 21.6154C19.8729 20.4542 19.0845 19.5433 17.9979 18.8828C16.9112 18.2223 15.6009 17.892 14.0668 17.892H3.77557L1.28267 32.9773ZM3.96733 16.8693H14.2585C15.7287 16.8693 17.0071 16.5337 18.0938 15.8626C19.1804 15.1914 20.0593 14.3018 20.7305 13.1939C21.4016 12.0859 21.8438 10.8821 22.0568 9.58239C22.4403 7.24929 22.0462 5.45419 20.8743 4.19709C19.7131 2.92933 17.9339 2.29545 15.5369 2.29545H6.33239L3.96733 16.8693ZM31.7727 2.29545L31.9645 1.27273H54.081L53.8892 2.29545H43.3423L38.1009 34H37.0781L42.3196 2.29545H31.7727ZM56.494 34L61.9272 1.27273H71.5153C73.3477 1.27273 74.9031 1.68288 76.1815 2.5032C77.4599 3.31285 78.3814 4.44212 78.946 5.89098C79.5107 7.32919 79.6332 8.98579 79.3136 10.8608C79.0153 12.7145 78.3441 14.3604 77.3001 15.7987C76.256 17.2262 74.9563 18.3501 73.4009 19.1705C71.8455 19.9801 70.1516 20.3849 68.3192 20.3849H59.2425L59.4343 19.3622H68.511C70.1516 19.3622 71.6591 19 73.0334 18.2756C74.4183 17.5511 75.5689 16.5497 76.4851 15.2713C77.4119 13.9929 78.0138 12.5227 78.2908 10.8608C78.5678 9.17756 78.456 7.69141 77.9553 6.40234C77.4545 5.11328 76.6342 4.10653 75.4943 3.3821C74.3544 2.65767 72.9641 2.29545 71.3235 2.29545H62.7582L57.5167 34H56.494ZM83.784 34L89.2172 1.27273H90.24L87.6192 17.125H108.457L111.078 1.27273H112.101L106.668 34H105.645L108.266 18.1477H87.4275L84.8067 34H83.784ZM144.808 17.6364C144.265 20.9709 143.215 23.9006 141.66 26.4254C140.105 28.9503 138.192 30.9212 135.923 32.3381C133.665 33.7443 131.193 34.4474 128.508 34.4474C125.77 34.4474 123.501 33.739 121.701 32.3221C119.911 30.9052 118.665 28.9343 117.961 26.4094C117.258 23.8846 117.173 20.9602 117.706 17.6364C118.27 14.3018 119.33 11.3722 120.886 8.8473C122.452 6.32244 124.369 4.35689 126.639 2.95064C128.908 1.53373 131.385 0.825283 134.069 0.825283C136.743 0.825283 138.981 1.52841 140.781 2.93466C142.592 4.34091 143.86 6.30646 144.584 8.83132C145.309 11.3455 145.383 14.2805 144.808 17.6364ZM143.785 17.6364C144.318 14.4616 144.27 11.6918 143.642 9.3267C143.013 6.96165 141.884 5.12393 140.254 3.81356C138.634 2.50319 136.594 1.84801 134.133 1.84801C131.63 1.84801 129.313 2.50852 127.182 3.82954C125.051 5.15057 123.246 6.99893 121.765 9.37464C120.295 11.7397 119.282 14.4936 118.729 17.6364C118.206 20.8004 118.254 23.565 118.872 25.93C119.49 28.2951 120.614 30.1381 122.244 31.4592C123.885 32.7695 125.952 33.4247 128.444 33.4247C130.98 33.4247 133.313 32.7589 135.444 31.4272C137.585 30.0955 139.385 28.2472 140.845 25.8821C142.315 23.5064 143.295 20.7578 143.785 17.6364ZM180.472 1.27273L175.038 34H174.016L156.757 3.19034H156.629L151.516 34H150.493L155.926 1.27273H156.949L174.207 32.0824H174.335L179.449 1.27273H180.472ZM212.1 11.5C212.1 10.3494 211.909 9.20419 211.525 8.06428C211.152 6.92436 210.566 5.88565 209.767 4.94815C208.968 4.01065 207.94 3.25959 206.683 2.69496C205.437 2.13033 203.94 1.84801 202.193 1.84801C199.977 1.84801 197.819 2.46058 195.721 3.68572C193.633 4.91087 191.816 6.70064 190.271 9.05504C188.737 11.3988 187.683 14.2592 187.107 17.6364C186.575 20.8111 186.617 23.581 187.235 25.946C187.853 28.3111 188.998 30.1488 190.671 31.4592C192.354 32.7695 194.512 33.4247 197.143 33.4247C199.391 33.4247 201.484 32.8761 203.423 31.7788C205.373 30.6815 207.019 29.1154 208.361 27.0806C209.703 25.0458 210.588 22.6222 211.014 19.8097L211.397 20.1932H199.636L199.828 19.1705H212.164L211.972 20.1932C211.482 23.1761 210.513 25.733 209.064 27.8636C207.626 29.9837 205.857 31.6136 203.759 32.7536C201.671 33.8828 199.401 34.4474 196.951 34.4474C194.181 34.4474 191.885 33.7443 190.064 32.3381C188.253 30.9318 186.996 28.9663 186.292 26.4414C185.589 23.9165 185.52 20.9815 186.085 17.6364C186.49 15.1222 187.187 12.837 188.178 10.7809C189.169 8.72479 190.383 6.95632 191.822 5.4755C193.27 3.98402 194.89 2.83878 196.68 2.03977C198.469 1.23011 200.371 0.825283 202.384 0.825283C204.323 0.825283 205.975 1.15554 207.338 1.81605C208.702 2.47656 209.81 3.34482 210.662 4.42081C211.525 5.48615 212.154 6.64204 212.548 7.88849C212.942 9.12429 213.134 10.3281 213.123 11.5H212.1Z" fill="black" fill-opacity="0.25"/>
</g>
<defs>
<filter id="filter0_b_2_2" x="-3.93182" y="-3.17471" width="221.071" height="41.6222" filterUnits="userSpaceOnUse" color-interpolation-filters="sRGB">
<feFlood flood-opacity="0" result="BackgroundImageFix"/>
<feGaussianBlur in="BackgroundImageFix" stdDeviation="2"/>
<feComposite in2="SourceAlpha" operator="in" result="effect1_backgroundBlur_2_2"/>
<feBlend mode="normal" in="SourceGraphic" in2="effect1_backgroundBlur_2_2" result="shape"/>
</filter>
</defs>
</svg>
